<svg width="80" height="80" viewBox="0 0 80 80" fill="none" xmlns="http://www.w3.org/2000/svg">
  <circle cx="40" cy="40" r="40" fill="#0891B2"/>
  <!-- Face -->
  <circle cx="40" cy="35" r="22" fill="#FEF3C7"/>
  <!-- Hair - short modern cut -->
  <path d="M18 35C18 23.4 27.4 14 39 14C50.6 14 60 23.4 60 35V26C60 21 56 17 51 17H29C24 17 20 21 20 26V35Z" fill="#0F172A"/>
  <!-- Hair side part -->
  <path d="M30 20C35 18 45 18 50 20" stroke="#334155" stroke-width="1" fill="none"/>
  <!-- Eyes -->
  <circle cx="33" cy="32" r="3" fill="#1F2937"/>
  <circle cx="47" cy="32" r="3" fill="#1F2937"/>
  <circle cx="33.5" cy="31" r="1" fill="white"/>
  <circle cx="47.5" cy="31" r="1" fill="white"/>
  <!-- VR Headset indicator -->
  <rect x="25" y="29" width="30" height="6" rx="3" fill="none" stroke="#0891B2" stroke-width="1" opacity="0.5"/>
  <!-- Nose -->
  <ellipse cx="40" cy="38" rx="1.5" ry="2" fill="#F59E0B"/>
  <!-- Mouth -->
  <path d="M36 42C38 44 42 44 44 42" stroke="#1F2937" stroke-width="2" stroke-linecap="round" fill="none"/>
  <!-- Tech collar/hoodie -->
  <path d="M22 58C30 52 50 52 58 58" stroke="#374151" stroke-width="4" fill="none"/>
</svg> 