<svg width="80" height="80" viewBox="0 0 80 80" fill="none" xmlns="http://www.w3.org/2000/svg">
  <circle cx="40" cy="40" r="40" fill="#10B981"/>
  <!-- Face -->
  <circle cx="40" cy="35" r="22" fill="#FED7AA"/>
  <!-- Hair -->
  <path d="M18 35C18 23.4 27.4 14 39 14C50.6 14 60 23.4 60 35V22C60 18 56 14 52 14H28C24 14 20 18 20 22V35Z" fill="#374151"/>
  <!-- Baseball cap -->
  <ellipse cx="40" cy="20" rx="25" ry="8" fill="#DC2626"/>
  <ellipse cx="40" cy="18" rx="20" ry="6" fill="#EF4444"/>
  <!-- Eyes -->
  <circle cx="33" cy="32" r="3" fill="#1F2937"/>
  <circle cx="47" cy="32" r="3" fill="#1F2937"/>
  <circle cx="33.5" cy="31" r="1" fill="white"/>
  <circle cx="47.5" cy="31" r="1" fill="white"/>
  <!-- Nose -->
  <ellipse cx="40" cy="38" rx="1.5" ry="2" fill="#F59E0B"/>
  <!-- Mouth -->
  <path d="M36 42C38 45 42 45 44 42" stroke="#1F2937" stroke-width="2" stroke-linecap="round" fill="none"/>
  <!-- Sunglasses reflection -->
  <rect x="30" y="28" width="20" height="8" rx="4" fill="none" stroke="#1F2937" stroke-width="1" opacity="0.3"/>
</svg> 