<svg width="80" height="80" viewBox="0 0 80 80" fill="none" xmlns="http://www.w3.org/2000/svg">
  <circle cx="40" cy="40" r="40" fill="#6366F1"/>
  <!-- Face -->
  <circle cx="40" cy="35" r="22" fill="#FEF3C7"/>
  <!-- Hair -->
  <path d="M18 35C18 23.4 27.4 14 39 14C50.6 14 60 23.4 60 35V25C60 20 56 16 51 16H29C24 16 20 20 20 25V35Z" fill="#92400E"/>
  <!-- Eyes -->
  <circle cx="33" cy="32" r="3" fill="#1F2937"/>
  <circle cx="47" cy="32" r="3" fill="#1F2937"/>
  <circle cx="33.5" cy="31" r="1" fill="white"/>
  <circle cx="47.5" cy="31" r="1" fill="white"/>
  <!-- Nose -->
  <ellipse cx="40" cy="38" rx="1.5" ry="2" fill="#F59E0B"/>
  <!-- Mouth -->
  <path d="M35 42C37 44 43 44 45 42" stroke="#1F2937" stroke-width="2" stroke-linecap="round" fill="none"/>
  <!-- Cheeks -->
  <circle cx="28" cy="40" r="3" fill="#FCA5A5" opacity="0.6"/>
  <circle cx="52" cy="40" r="3" fill="#FCA5A5" opacity="0.6"/>
</svg> 