<svg width="80" height="80" viewBox="0 0 80 80" fill="none" xmlns="http://www.w3.org/2000/svg">
  <circle cx="40" cy="40" r="40" fill="#EC4899"/>
  <!-- Face -->
  <circle cx="40" cy="35" r="22" fill="#FEF7FF"/>
  <!-- Hair - artistic/messy style -->
  <path d="M18 35C18 23.4 27.4 14 39 14C50.6 14 60 23.4 60 35V20C60 15 55 12 50 15C45 10 35 10 30 15C25 12 20 15 20 20V35Z" fill="#7C2D12"/>
  <!-- Hair highlights -->
  <path d="M25 20C30 15 35 18 35 18C35 18 40 15 45 20" stroke="#F59E0B" stroke-width="2" fill="none"/>
  <!-- Eyes -->
  <circle cx="33" cy="32" r="3" fill="#7C3AED"/>
  <circle cx="47" cy="32" r="3" fill="#7C3AED"/>
  <circle cx="33.5" cy="31" r="1" fill="white"/>
  <circle cx="47.5" cy="31" r="1" fill="white"/>
  <!-- Nose -->
  <ellipse cx="40" cy="38" rx="1.5" ry="2" fill="#F59E0B"/>
  <!-- Mouth -->
  <path d="M35 42C37 45 43 45 45 42" stroke="#7C3AED" stroke-width="2" stroke-linecap="round" fill="none"/>
  <!-- Artistic paint streak -->
  <path d="M20 25C25 30 30 28 35 30" stroke="#10B981" stroke-width="3" stroke-linecap="round" fill="none"/>
  <!-- Cheeks -->
  <circle cx="28" cy="40" r="2.5" fill="#F472B6" opacity="0.7"/>
  <circle cx="52" cy="40" r="2.5" fill="#F472B6" opacity="0.7"/>
</svg> 