<svg width="80" height="80" viewBox="0 0 80 80" fill="none" xmlns="http://www.w3.org/2000/svg">
  <circle cx="40" cy="40" r="40" fill="#7C3AED"/>
  <!-- Face -->
  <circle cx="40" cy="35" r="22" fill="#FBBF24"/>
  <!-- Hair -->
  <path d="M18 35C18 23.4 27.4 14 39 14C50.6 14 60 23.4 60 35V24C60 19 55 15 50 15H30C25 15 20 19 20 24V35Z" fill="#451A03"/>
  <!-- Glasses -->
  <rect x="28" y="28" width="10" height="8" rx="2" fill="none" stroke="#1F2937" stroke-width="2"/>
  <rect x="42" y="28" width="10" height="8" rx="2" fill="none" stroke="#1F2937" stroke-width="2"/>
  <line x1="38" y1="32" x2="42" y2="32" stroke="#1F2937" stroke-width="2"/>
  <!-- Eyes behind glasses -->
  <circle cx="33" cy="32" r="2" fill="#1F2937"/>
  <circle cx="47" cy="32" r="2" fill="#1F2937"/>
  <circle cx="33.5" cy="31" r="0.5" fill="white"/>
  <circle cx="47.5" cy="31" r="0.5" fill="white"/>
  <!-- Nose -->
  <ellipse cx="40" cy="38" rx="1.5" ry="2" fill="#F59E0B"/>
  <!-- Mouth -->
  <path d="M36 43C38 44 42 44 44 43" stroke="#1F2937" stroke-width="2" stroke-linecap="round" fill="none"/>
  <!-- Collar -->
  <path d="M25 55L40 45L55 55" stroke="#1F2937" stroke-width="3" fill="none"/>
</svg> 